<svg width="29" height="16" viewBox="0 0 29 16" fill="none" xmlns="http://www.w3.org/2000/svg">
<path d="M0.882344 1.516V0.844L3.57034 0.0519993V0.736L0.882344 1.516ZM0.882344 2.776V2.104L3.57034 1.312V1.996L0.882344 2.776ZM4.492 13.06C3.852 13.06 3.36 12.988 3.016 12.844C2.68 12.7 2.448 12.476 2.32 12.172C2.192 11.868 2.12 11.476 2.104 10.996L1.864 4.432H2.848L3.088 10.612C3.104 11.004 3.14 11.308 3.196 11.524C3.26 11.732 3.396 11.876 3.604 11.956C3.82 12.036 4.156 12.076 4.612 12.076C4.78 12.076 4.9 12.124 4.972 12.22C5.052 12.308 5.092 12.416 5.092 12.544C5.092 12.672 5.036 12.792 4.924 12.904C4.812 13.008 4.668 13.06 4.492 13.06ZM4.49219 13.06L4.61219 12.076C4.94819 12.076 5.21219 12.048 5.40419 11.992C5.59619 11.928 5.74019 11.812 5.83619 11.644C5.94019 11.468 6.02819 11.216 6.10019 10.888C6.17219 10.56 6.26019 10.132 6.36419 9.604L7.30019 9.784C7.26819 9.928 7.23219 10.088 7.19219 10.264C7.15219 10.44 7.11619 10.616 7.08419 10.792C7.06019 10.96 7.04819 11.108 7.04819 11.236C7.04819 11.396 7.08419 11.54 7.15619 11.668C7.22819 11.796 7.38419 11.896 7.62419 11.968C7.86419 12.04 8.23219 12.076 8.72819 12.076C8.89619 12.076 9.01619 12.124 9.08819 12.22C9.16819 12.308 9.20819 12.416 9.20819 12.544C9.20819 12.672 9.15219 12.792 9.04019 12.904C8.92819 13.008 8.78419 13.06 8.60819 13.06C8.08819 13.06 7.68019 13.016 7.38419 12.928C7.08819 12.832 6.87219 12.692 6.73619 12.508C6.60019 12.316 6.50819 12.084 6.46019 11.812L6.82019 11.836C6.69219 12.092 6.55219 12.3 6.40019 12.46C6.25619 12.62 6.09619 12.744 5.92019 12.832C5.74419 12.92 5.54019 12.98 5.30819 13.012C5.07619 13.044 4.80419 13.06 4.49219 13.06ZM6.53219 15.292C6.36419 15.292 6.22019 15.232 6.10019 15.112C5.98819 15 5.93219 14.864 5.93219 14.704C5.93219 14.544 5.98819 14.404 6.10019 14.284C6.22019 14.164 6.36419 14.104 6.53219 14.104C6.69219 14.104 6.82819 14.164 6.94019 14.284C7.06019 14.404 7.12019 14.544 7.12019 14.704C7.12019 14.864 7.06019 15 6.94019 15.112C6.82819 15.232 6.69219 15.292 6.53219 15.292ZM8.60547 13.06L8.71347 12.076C9.12947 12.076 9.53747 12.044 9.93747 11.98C10.3375 11.916 10.7295 11.824 11.1135 11.704C11.4975 11.584 11.8655 11.44 12.2175 11.272C12.5775 11.096 12.9175 10.896 13.2375 10.672C13.0295 10.488 12.7895 10.328 12.5175 10.192C12.2455 10.056 11.9455 9.952 11.6175 9.88C11.2975 9.8 10.9575 9.76 10.5975 9.76C10.4695 9.76 10.3495 9.764 10.2375 9.772C10.1255 9.78 10.0135 9.796 9.90147 9.82C9.78947 9.836 9.66147 9.86 9.51747 9.892L9.32547 8.98C9.54147 8.916 9.75747 8.868 9.97347 8.836C10.1895 8.796 10.3975 8.776 10.5975 8.776C11.0135 8.776 11.3895 8.828 11.7255 8.932C12.0615 9.028 12.3655 9.148 12.6375 9.292C12.9175 9.436 13.1775 9.58 13.4175 9.724C13.6655 9.868 13.9055 9.992 14.1375 10.096C14.3695 10.192 14.6095 10.24 14.8575 10.24H15.1095L15.1935 11.104C14.8495 11.104 14.5335 11.152 14.2455 11.248C13.9575 11.344 13.6735 11.468 13.3935 11.62C13.1215 11.764 12.8335 11.92 12.5295 12.088C12.2255 12.248 11.8895 12.404 11.5215 12.556C11.1535 12.7 10.7295 12.82 10.2495 12.916C9.77747 13.012 9.22947 13.06 8.60547 13.06ZM15.2394 15.784L14.8914 14.872C15.4754 14.68 15.9594 14.46 16.3434 14.212C16.7354 13.964 17.0434 13.7 17.2674 13.42C17.4994 13.14 17.6634 12.856 17.7594 12.568C17.8554 12.272 17.9034 11.988 17.9034 11.716C17.9034 11.324 17.8154 10.928 17.6394 10.528C17.4714 10.12 17.2834 9.736 17.0754 9.376L17.9514 8.932C18.1034 9.212 18.2354 9.488 18.3474 9.76C18.4674 10.032 18.5714 10.288 18.6594 10.528C18.7554 10.768 18.8314 10.988 18.8874 11.188C18.9994 11.532 19.1434 11.768 19.3194 11.896C19.5034 12.016 19.7514 12.076 20.0634 12.076C20.2314 12.076 20.3514 12.124 20.4234 12.22C20.5034 12.308 20.5434 12.416 20.5434 12.544C20.5434 12.672 20.4874 12.792 20.3754 12.904C20.2634 13.008 20.1194 13.06 19.9434 13.06C19.5914 13.06 19.3034 13 19.0794 12.88C18.8634 12.752 18.6994 12.588 18.5874 12.388C18.4754 12.18 18.3994 11.964 18.3594 11.74L18.7434 11.956C18.7434 12.484 18.6234 12.964 18.3834 13.396C18.1514 13.836 17.8514 14.216 17.4834 14.536C17.1154 14.864 16.7314 15.132 16.3314 15.34C15.9314 15.548 15.5674 15.696 15.2394 15.784ZM19.9492 13.06L20.0692 12.076C20.2932 12.076 20.4812 12.028 20.6332 11.932C20.7852 11.836 20.9332 11.676 21.0772 11.452C21.2212 11.228 21.3772 10.928 21.5452 10.552C21.7772 10.04 22.0052 9.652 22.2292 9.388C22.4612 9.124 22.6892 8.944 22.9132 8.848C23.1452 8.752 23.3732 8.704 23.5972 8.704C23.8692 8.704 24.1212 8.776 24.3532 8.92C24.5852 9.056 24.7892 9.24 24.9652 9.472C25.1412 9.704 25.2772 9.96 25.3732 10.24C25.4772 10.512 25.5292 10.784 25.5292 11.056C25.5292 11.536 25.4452 11.92 25.2772 12.208C25.1092 12.488 24.8932 12.692 24.6292 12.82C24.3732 12.94 24.1052 13 23.8252 13C23.5772 13 23.2572 12.952 22.8652 12.856C22.4812 12.76 21.9932 12.516 21.4012 12.124L21.8692 11.368C22.2612 11.616 22.6132 11.788 22.9252 11.884C23.2452 11.972 23.5092 12.016 23.7172 12.016C23.9492 12.016 24.1332 11.984 24.2692 11.92C24.4052 11.848 24.5052 11.748 24.5692 11.62C24.6332 11.492 24.6652 11.348 24.6652 11.188C24.6652 10.956 24.6092 10.724 24.4972 10.492C24.3852 10.26 24.2412 10.068 24.0652 9.916C23.8972 9.764 23.7172 9.688 23.5252 9.688C23.3812 9.688 23.2412 9.728 23.1052 9.808C22.9692 9.888 22.8292 10.036 22.6852 10.252C22.5412 10.468 22.3772 10.78 22.1932 11.188C22.0012 11.62 21.8172 11.964 21.6412 12.22C21.4732 12.468 21.3012 12.652 21.1252 12.772C20.9492 12.892 20.7652 12.968 20.5732 13C20.3892 13.04 20.1812 13.06 19.9492 13.06ZM28.3691 4.46875L28.293 10.5918H27.3145L27.2324 4.46875H28.3691ZM27.1973 12.4551C27.1973 12.2793 27.25 12.1309 27.3555 12.0098C27.4648 11.8887 27.625 11.8281 27.8359 11.8281C28.043 11.8281 28.2012 11.8887 28.3105 12.0098C28.4238 12.1309 28.4805 12.2793 28.4805 12.4551C28.4805 12.623 28.4238 12.7676 28.3105 12.8887C28.2012 13.0098 28.043 13.0703 27.8359 13.0703C27.625 13.0703 27.4648 13.0098 27.3555 12.8887C27.25 12.7676 27.1973 12.623 27.1973 12.4551Z" fill="white"/>
</svg>
