<svg width="41" height="11" viewBox="0 0 41 11" fill="none" xmlns="http://www.w3.org/2000/svg">
<path d="M4.305 10.21C2.805 8.74 1.59 7.225 1.05 6.235C0.765 5.725 0.63 5.275 0.63 4.9C0.63 4.375 0.93 4.09 1.44 4.09C1.875 4.09 2.28 4.36 2.67 4.81C3.21 4.435 3.39 3.76 3.39 3.1C3.39 2.545 3.27 2.05 3.135 1.735H0V0.669999H7.44V1.735H4.365C4.53 2.17 4.605 2.65 4.605 3.25C4.605 3.94 4.44 4.525 4.095 5.02C4.725 5.245 5.325 5.335 5.97 5.335C6.48 5.335 6.93 5.29 7.47 5.2L7.5 6.265C6.99 6.385 6.555 6.415 5.97 6.415C5.19 6.415 4.2 6.235 3.375 5.785C3.075 5.995 2.7 6.19 2.28 6.325C3 7.3 4.02 8.29 5.22 9.4L4.305 10.21ZM14.3801 1.735H12.8351V10H11.6351V7.63C11.0651 8.05 10.3151 8.275 9.44508 8.275C7.79508 8.275 6.52008 7.33 6.52008 5.665C6.52008 3.88 7.81008 3.04 9.62508 3.04C10.1801 3.04 10.6751 3.1 11.0951 3.205L11.0201 4.285C10.6001 4.195 10.1801 4.135 9.67008 4.135C8.54508 4.135 7.73508 4.675 7.73508 5.695C7.73508 6.595 8.32008 7.195 9.44508 7.195C10.3301 7.195 11.1101 6.79 11.6351 6.16V1.735H5.83008V0.669999H14.3801V1.735ZM16.715 1.735V10H15.5V1.735H14.165V0.669999H18.26V1.735H16.715ZM21.1669 1.735V6.49C21.1669 7.015 20.8969 7.33 20.4469 7.33C19.6669 7.33 18.6619 6.22 18.6619 5.38C18.6619 4.93 18.9019 4.615 19.5769 4.615H19.9519V1.735H18.0469V0.669999H26.7019V1.735H25.1569V10H23.9419V1.735H21.1669ZM33.714 1.735V10H32.499V5.08H30.414C29.154 5.08 28.389 5.47 28.389 6.535C28.389 7.51 29.019 8.305 30.219 9.445L29.364 10.21C27.954 8.845 27.174 7.72 27.174 6.385C27.174 4.765 28.359 4.015 30.204 4.015H32.499V1.735H26.499V0.669999H35.259V1.735H33.714ZM40.1455 1.46875L40.0693 7.5918H39.0908L39.0088 1.46875H40.1455ZM38.9736 9.45508C38.9736 9.2793 39.0264 9.13086 39.1318 9.00977C39.2412 8.88867 39.4014 8.82812 39.6123 8.82812C39.8193 8.82812 39.9775 8.88867 40.0869 9.00977C40.2002 9.13086 40.2568 9.2793 40.2568 9.45508C40.2568 9.62305 40.2002 9.76758 40.0869 9.88867C39.9775 10.0098 39.8193 10.0703 39.6123 10.0703C39.4014 10.0703 39.2412 10.0098 39.1318 9.88867C39.0264 9.76758 38.9736 9.62305 38.9736 9.45508Z" fill="white"/>
</svg>
