<svg width="29" height="10" viewBox="0 0 29 10" fill="none" xmlns="http://www.w3.org/2000/svg">
<path d="M5.5625 4.13672V5.05664H0.945312V4.13672H5.5625ZM1.12109 0.46875V9H-0.00976562V0.46875H1.12109ZM6.54688 0.46875V9H5.42188V0.46875H6.54688ZM11.0234 9.11719C10.582 9.11719 10.1816 9.04297 9.82227 8.89453C9.4668 8.74219 9.16016 8.5293 8.90234 8.25586C8.64844 7.98242 8.45312 7.6582 8.31641 7.2832C8.17969 6.9082 8.11133 6.49805 8.11133 6.05273V5.80664C8.11133 5.29102 8.1875 4.83203 8.33984 4.42969C8.49219 4.02344 8.69922 3.67969 8.96094 3.39844C9.22266 3.11719 9.51953 2.9043 9.85156 2.75977C10.1836 2.61523 10.5273 2.54297 10.8828 2.54297C11.3359 2.54297 11.7266 2.62109 12.0547 2.77734C12.3867 2.93359 12.6582 3.15234 12.8691 3.43359C13.0801 3.71094 13.2363 4.03906 13.3379 4.41797C13.4395 4.79297 13.4902 5.20312 13.4902 5.64844V6.13477H8.75586V5.25H12.4062V5.16797C12.3906 4.88672 12.332 4.61328 12.2305 4.34766C12.1328 4.08203 11.9766 3.86328 11.7617 3.69141C11.5469 3.51953 11.2539 3.43359 10.8828 3.43359C10.6367 3.43359 10.4102 3.48633 10.2031 3.5918C9.99609 3.69336 9.81836 3.8457 9.66992 4.04883C9.52148 4.25195 9.40625 4.5 9.32422 4.79297C9.24219 5.08594 9.20117 5.42383 9.20117 5.80664V6.05273C9.20117 6.35352 9.24219 6.63672 9.32422 6.90234C9.41016 7.16406 9.5332 7.39453 9.69336 7.59375C9.85742 7.79297 10.0547 7.94922 10.2852 8.0625C10.5195 8.17578 10.7852 8.23242 11.082 8.23242C11.4648 8.23242 11.7891 8.1543 12.0547 7.99805C12.3203 7.8418 12.5527 7.63281 12.752 7.37109L13.4082 7.89258C13.2715 8.09961 13.0977 8.29688 12.8867 8.48438C12.6758 8.67188 12.416 8.82422 12.1074 8.94141C11.8027 9.05859 11.4414 9.11719 11.0234 9.11719ZM15.9336 0V9H14.8438V0H15.9336ZM18.8516 0V9H17.7617V0H18.8516ZM20.3047 5.90039V5.76562C20.3047 5.30859 20.3711 4.88477 20.5039 4.49414C20.6367 4.09961 20.8281 3.75781 21.0781 3.46875C21.3281 3.17578 21.6309 2.94922 21.9863 2.78906C22.3418 2.625 22.7402 2.54297 23.1816 2.54297C23.627 2.54297 24.0273 2.625 24.3828 2.78906C24.7422 2.94922 25.0469 3.17578 25.2969 3.46875C25.5508 3.75781 25.7441 4.09961 25.877 4.49414C26.0098 4.88477 26.0762 5.30859 26.0762 5.76562V5.90039C26.0762 6.35742 26.0098 6.78125 25.877 7.17188C25.7441 7.5625 25.5508 7.9043 25.2969 8.19727C25.0469 8.48633 24.7441 8.71289 24.3887 8.87695C24.0371 9.03711 23.6387 9.11719 23.1934 9.11719C22.748 9.11719 22.3477 9.03711 21.9922 8.87695C21.6367 8.71289 21.332 8.48633 21.0781 8.19727C20.8281 7.9043 20.6367 7.5625 20.5039 7.17188C20.3711 6.78125 20.3047 6.35742 20.3047 5.90039ZM21.3887 5.76562V5.90039C21.3887 6.2168 21.4258 6.51562 21.5 6.79688C21.5742 7.07422 21.6855 7.32031 21.834 7.53516C21.9863 7.75 22.1758 7.91992 22.4023 8.04492C22.6289 8.16602 22.8926 8.22656 23.1934 8.22656C23.4902 8.22656 23.75 8.16602 23.9727 8.04492C24.1992 7.91992 24.3867 7.75 24.5352 7.53516C24.6836 7.32031 24.7949 7.07422 24.8691 6.79688C24.9473 6.51562 24.9863 6.2168 24.9863 5.90039V5.76562C24.9863 5.45312 24.9473 5.1582 24.8691 4.88086C24.7949 4.59961 24.6816 4.35156 24.5293 4.13672C24.3809 3.91797 24.1934 3.74609 23.9668 3.62109C23.7441 3.49609 23.4824 3.43359 23.1816 3.43359C22.8848 3.43359 22.623 3.49609 22.3965 3.62109C22.1738 3.74609 21.9863 3.91797 21.834 4.13672C21.6855 4.35156 21.5742 4.59961 21.5 4.88086C21.4258 5.1582 21.3887 5.45312 21.3887 5.76562ZM28.7246 0.46875L28.6484 6.5918H27.6699L27.5879 0.46875H28.7246ZM27.5527 8.45508C27.5527 8.2793 27.6055 8.13086 27.7109 8.00977C27.8203 7.88867 27.9805 7.82812 28.1914 7.82812C28.3984 7.82812 28.5566 7.88867 28.666 8.00977C28.7793 8.13086 28.8359 8.2793 28.8359 8.45508C28.8359 8.62305 28.7793 8.76758 28.666 8.88867C28.5566 9.00977 28.3984 9.07031 28.1914 9.07031C27.9805 9.07031 27.8203 9.00977 27.7109 8.88867C27.6055 8.76758 27.5527 8.62305 27.5527 8.45508Z" fill="white"/>
</svg>
