<svg width="64" height="11" viewBox="0 0 64 11" fill="none" xmlns="http://www.w3.org/2000/svg">
<path d="M0.82 1.576C1.252 1.632 1.736 1.672 2.272 1.696C2.816 1.72 3.388 1.732 3.988 1.732C4.372 1.732 4.756 1.724 5.14 1.708C5.532 1.692 5.904 1.672 6.256 1.648C6.616 1.616 6.94 1.588 7.228 1.564V2.548C6.956 2.564 6.64 2.584 6.28 2.608C5.92 2.632 5.54 2.652 5.14 2.668C4.748 2.684 4.364 2.692 3.988 2.692C3.388 2.692 2.828 2.68 2.308 2.656C1.788 2.624 1.292 2.592 0.82 2.56V1.576ZM1.3 6.412C1.22 6.652 1.156 6.884 1.108 7.108C1.068 7.332 1.048 7.556 1.048 7.78C1.048 8.236 1.284 8.608 1.756 8.896C2.228 9.184 2.944 9.328 3.904 9.328C4.456 9.328 4.988 9.308 5.5 9.268C6.012 9.228 6.48 9.172 6.904 9.1C7.336 9.028 7.704 8.944 8.008 8.848L8.02 9.88C7.732 9.96 7.376 10.032 6.952 10.096C6.536 10.16 6.072 10.208 5.56 10.24C5.048 10.28 4.504 10.3 3.928 10.3C3.12 10.3 2.428 10.212 1.852 10.036C1.276 9.86 0.836 9.6 0.532 9.256C0.228 8.912 0.0760001 8.488 0.0760001 7.984C0.0760001 7.672 0.104 7.376 0.16 7.096C0.216 6.816 0.272 6.556 0.328 6.316L1.3 6.412ZM16.564 1.096C16.516 1.16 16.456 1.248 16.384 1.36C16.32 1.464 16.252 1.572 16.18 1.684C16.044 1.884 15.88 2.152 15.688 2.488C15.504 2.816 15.304 3.172 15.088 3.556C14.872 3.932 14.66 4.304 14.452 4.672C14.252 5.04 14.076 5.372 13.924 5.668C14.212 5.404 14.508 5.216 14.812 5.104C15.124 4.984 15.424 4.924 15.712 4.924C16.112 4.924 16.44 5.048 16.696 5.296C16.96 5.544 17.1 5.904 17.116 6.376C17.124 6.616 17.128 6.872 17.128 7.144C17.136 7.408 17.14 7.668 17.14 7.924C17.14 8.172 17.148 8.396 17.164 8.596C17.188 8.9 17.292 9.12 17.476 9.256C17.66 9.384 17.88 9.448 18.136 9.448C18.464 9.448 18.76 9.36 19.024 9.184C19.296 9 19.532 8.76 19.732 8.464C19.94 8.168 20.112 7.848 20.248 7.504C20.384 7.16 20.492 6.832 20.572 6.52L21.364 7.168C21.156 7.808 20.9 8.376 20.596 8.872C20.292 9.36 19.924 9.744 19.492 10.024C19.068 10.304 18.564 10.444 17.98 10.444C17.556 10.444 17.216 10.364 16.96 10.204C16.712 10.052 16.532 9.86 16.42 9.628C16.316 9.396 16.256 9.16 16.24 8.92C16.232 8.688 16.224 8.436 16.216 8.164C16.216 7.892 16.216 7.624 16.216 7.36C16.216 7.096 16.208 6.856 16.192 6.64C16.176 6.376 16.092 6.172 15.94 6.028C15.796 5.876 15.588 5.8 15.316 5.8C14.996 5.8 14.684 5.896 14.38 6.088C14.084 6.272 13.812 6.512 13.564 6.808C13.324 7.104 13.128 7.412 12.976 7.732C12.888 7.908 12.788 8.12 12.676 8.368C12.572 8.616 12.472 8.872 12.376 9.136C12.28 9.4 12.192 9.648 12.112 9.88C12.04 10.112 11.984 10.304 11.944 10.456L10.912 10.096C11.056 9.688 11.244 9.224 11.476 8.704C11.708 8.184 11.96 7.64 12.232 7.072C12.504 6.496 12.784 5.928 13.072 5.368C13.36 4.8 13.632 4.268 13.888 3.772C14.152 3.268 14.388 2.828 14.596 2.452C14.804 2.068 14.96 1.78 15.064 1.588C15.136 1.444 15.208 1.3 15.28 1.156C15.36 1.004 15.436 0.839999 15.508 0.663999L16.564 1.096ZM27.472 1.9C27.8 1.948 28.18 1.988 28.612 2.02C29.052 2.044 29.504 2.056 29.968 2.056C30.44 2.048 30.888 2.032 31.312 2.008C31.744 1.976 32.108 1.936 32.404 1.888V2.86C32.084 2.892 31.708 2.92 31.276 2.944C30.852 2.96 30.408 2.968 29.944 2.968C29.488 2.968 29.044 2.96 28.612 2.944C28.18 2.92 27.8 2.892 27.472 2.86V1.9ZM27.94 6.784C27.884 7 27.84 7.196 27.808 7.372C27.776 7.548 27.76 7.72 27.76 7.888C27.76 8.024 27.788 8.16 27.844 8.296C27.908 8.424 28.012 8.54 28.156 8.644C28.308 8.74 28.516 8.82 28.78 8.884C29.044 8.94 29.38 8.968 29.788 8.968C30.332 8.968 30.844 8.944 31.324 8.896C31.804 8.84 32.284 8.76 32.764 8.656L32.788 9.664C32.412 9.744 31.972 9.808 31.468 9.856C30.972 9.896 30.412 9.916 29.788 9.916C28.78 9.916 28.04 9.756 27.568 9.436C27.104 9.116 26.872 8.676 26.872 8.116C26.872 7.916 26.888 7.704 26.92 7.48C26.96 7.248 27.012 6.988 27.076 6.7L27.94 6.784ZM25.18 0.976C25.164 1.04 25.14 1.124 25.108 1.228C25.084 1.324 25.056 1.424 25.024 1.528C25 1.624 24.98 1.708 24.964 1.78C24.924 2.004 24.876 2.264 24.82 2.56C24.764 2.848 24.708 3.16 24.652 3.496C24.604 3.824 24.556 4.16 24.508 4.504C24.468 4.84 24.432 5.168 24.4 5.488C24.376 5.808 24.364 6.104 24.364 6.376C24.364 6.672 24.372 6.952 24.388 7.216C24.412 7.48 24.44 7.76 24.472 8.056C24.544 7.872 24.62 7.676 24.7 7.468C24.78 7.26 24.86 7.056 24.94 6.856C25.028 6.648 25.104 6.464 25.168 6.304L25.672 6.688C25.568 6.976 25.456 7.292 25.336 7.636C25.216 7.98 25.108 8.312 25.012 8.632C24.924 8.944 24.86 9.192 24.82 9.376C24.804 9.464 24.788 9.56 24.772 9.664C24.756 9.768 24.752 9.852 24.76 9.916C24.768 9.98 24.772 10.048 24.772 10.12C24.78 10.2 24.788 10.272 24.796 10.336L23.932 10.396C23.812 9.972 23.708 9.428 23.62 8.764C23.532 8.092 23.488 7.352 23.488 6.544C23.488 6.104 23.508 5.656 23.548 5.2C23.588 4.736 23.64 4.288 23.704 3.856C23.768 3.416 23.828 3.016 23.884 2.656C23.948 2.288 23.996 1.98 24.028 1.732C24.052 1.588 24.072 1.444 24.088 1.3C24.104 1.148 24.112 1.008 24.112 0.879999L25.18 0.976ZM39.076 0.603999C39.028 0.764 38.988 0.932 38.956 1.108C38.924 1.284 38.892 1.452 38.86 1.612C38.82 1.804 38.772 2.044 38.716 2.332C38.668 2.612 38.604 2.92 38.524 3.256C38.452 3.584 38.376 3.916 38.296 4.252C38.216 4.588 38.132 4.908 38.044 5.212C37.964 5.508 37.88 5.768 37.792 5.992C38.32 5.624 38.856 5.364 39.4 5.212C39.952 5.052 40.544 4.972 41.176 4.972C41.816 4.972 42.36 5.072 42.808 5.272C43.256 5.472 43.6 5.752 43.84 6.112C44.08 6.464 44.2 6.876 44.2 7.348C44.2 7.972 44.048 8.5 43.744 8.932C43.44 9.364 43.012 9.704 42.46 9.952C41.908 10.2 41.252 10.356 40.492 10.42C39.74 10.492 38.904 10.48 37.984 10.384L37.744 9.436C38.44 9.532 39.112 9.572 39.76 9.556C40.416 9.532 41 9.444 41.512 9.292C42.032 9.132 42.444 8.896 42.748 8.584C43.06 8.272 43.216 7.868 43.216 7.372C43.216 6.924 43.032 6.548 42.664 6.244C42.304 5.932 41.772 5.776 41.068 5.776C40.356 5.776 39.688 5.9 39.064 6.148C38.44 6.388 37.928 6.748 37.528 7.228C37.456 7.316 37.388 7.404 37.324 7.492C37.268 7.572 37.212 7.668 37.156 7.78L36.256 7.456C36.488 7.008 36.7 6.508 36.892 5.956C37.084 5.396 37.252 4.832 37.396 4.264C37.54 3.696 37.66 3.176 37.756 2.704C37.852 2.224 37.92 1.836 37.96 1.54C37.984 1.348 38 1.176 38.008 1.024C38.016 0.872 38.016 0.712 38.008 0.543999L39.076 0.603999ZM35.344 2.128C35.664 2.184 36.032 2.232 36.448 2.272C36.872 2.312 37.264 2.332 37.624 2.332C38.008 2.332 38.436 2.32 38.908 2.296C39.38 2.272 39.872 2.236 40.384 2.188C40.896 2.14 41.408 2.08 41.92 2.008C42.44 1.928 42.936 1.836 43.408 1.732L43.42 2.656C42.996 2.728 42.532 2.796 42.028 2.86C41.532 2.924 41.024 2.98 40.504 3.028C39.984 3.076 39.476 3.116 38.98 3.148C38.492 3.172 38.044 3.184 37.636 3.184C37.228 3.184 36.832 3.172 36.448 3.148C36.072 3.124 35.708 3.096 35.356 3.064L35.344 2.128ZM50.788 2.908C51.132 2.94 51.468 2.964 51.796 2.98C52.124 2.996 52.468 3.004 52.828 3.004C53.548 3.004 54.264 2.976 54.976 2.92C55.688 2.864 56.348 2.776 56.956 2.656V3.58C56.316 3.684 55.64 3.76 54.928 3.808C54.224 3.856 53.516 3.884 52.804 3.892C52.46 3.892 52.124 3.884 51.796 3.868C51.476 3.852 51.14 3.832 50.788 3.808V2.908ZM54.988 0.76C54.972 0.879999 54.956 1 54.94 1.12C54.932 1.24 54.924 1.36 54.916 1.48C54.908 1.624 54.9 1.808 54.892 2.032C54.884 2.256 54.88 2.496 54.88 2.752C54.88 3 54.88 3.244 54.88 3.484C54.88 3.94 54.888 4.396 54.904 4.852C54.92 5.308 54.94 5.752 54.964 6.184C54.988 6.616 55.008 7.024 55.024 7.408C55.048 7.784 55.06 8.128 55.06 8.44C55.06 8.68 55.024 8.916 54.952 9.148C54.888 9.38 54.776 9.588 54.616 9.772C54.464 9.956 54.252 10.1 53.98 10.204C53.716 10.316 53.384 10.372 52.984 10.372C52.176 10.372 51.556 10.22 51.124 9.916C50.7 9.612 50.488 9.192 50.488 8.656C50.488 8.32 50.584 8.016 50.776 7.744C50.976 7.464 51.256 7.244 51.616 7.084C51.984 6.924 52.432 6.844 52.96 6.844C53.472 6.844 53.94 6.904 54.364 7.024C54.796 7.136 55.192 7.288 55.552 7.48C55.92 7.664 56.256 7.872 56.56 8.104C56.864 8.328 57.144 8.552 57.4 8.776L56.872 9.58C56.456 9.18 56.036 8.832 55.612 8.536C55.196 8.24 54.764 8.008 54.316 7.84C53.868 7.672 53.392 7.588 52.888 7.588C52.432 7.588 52.06 7.68 51.772 7.864C51.492 8.04 51.352 8.272 51.352 8.56C51.352 8.864 51.488 9.1 51.76 9.268C52.032 9.428 52.384 9.508 52.816 9.508C53.16 9.508 53.424 9.452 53.608 9.34C53.8 9.228 53.932 9.076 54.004 8.884C54.084 8.692 54.124 8.464 54.124 8.2C54.124 7.984 54.116 7.692 54.1 7.324C54.084 6.956 54.064 6.556 54.04 6.124C54.016 5.684 53.996 5.236 53.98 4.78C53.964 4.324 53.956 3.896 53.956 3.496C53.956 3.088 53.956 2.704 53.956 2.344C53.956 1.984 53.956 1.7 53.956 1.492C53.956 1.388 53.952 1.268 53.944 1.132C53.936 0.988 53.924 0.864 53.908 0.76H54.988ZM49.06 0.831999C49.036 0.895999 49.008 0.98 48.976 1.084C48.952 1.18 48.928 1.28 48.904 1.384C48.888 1.488 48.872 1.576 48.856 1.648C48.808 1.872 48.756 2.14 48.7 2.452C48.652 2.756 48.6 3.088 48.544 3.448C48.488 3.8 48.436 4.16 48.388 4.528C48.348 4.888 48.316 5.236 48.292 5.572C48.268 5.908 48.256 6.212 48.256 6.484C48.256 6.772 48.264 7.048 48.28 7.312C48.304 7.576 48.336 7.856 48.376 8.152C48.44 7.968 48.512 7.772 48.592 7.564C48.672 7.356 48.752 7.148 48.832 6.94C48.92 6.732 48.996 6.548 49.06 6.388L49.552 6.772C49.456 7.044 49.348 7.352 49.228 7.696C49.116 8.032 49.008 8.356 48.904 8.668C48.808 8.972 48.74 9.224 48.7 9.424C48.684 9.504 48.668 9.596 48.652 9.7C48.644 9.804 48.644 9.892 48.652 9.964C48.652 10.02 48.652 10.088 48.652 10.168C48.66 10.248 48.668 10.32 48.676 10.384L47.836 10.444C47.716 10.012 47.608 9.476 47.512 8.836C47.424 8.188 47.38 7.46 47.38 6.652C47.38 6.204 47.4 5.74 47.44 5.26C47.488 4.772 47.54 4.296 47.596 3.832C47.66 3.368 47.72 2.944 47.776 2.56C47.84 2.168 47.892 1.848 47.932 1.6C47.948 1.464 47.964 1.32 47.98 1.168C47.996 1.016 48.004 0.875999 48.004 0.748L49.06 0.831999ZM63.0918 1.46875L63.0156 7.5918H62.0371L61.9551 1.46875H63.0918ZM61.9199 9.45508C61.9199 9.2793 61.9727 9.13086 62.0781 9.00977C62.1875 8.88867 62.3477 8.82812 62.5586 8.82812C62.7656 8.82812 62.9238 8.88867 63.0332 9.00977C63.1465 9.13086 63.2031 9.2793 63.2031 9.45508C63.2031 9.62305 63.1465 9.76758 63.0332 9.88867C62.9238 10.0098 62.7656 10.0703 62.5586 10.0703C62.3477 10.0703 62.1875 10.0098 62.0781 9.88867C61.9727 9.76758 61.9199 9.62305 61.9199 9.45508Z" fill="white"/>
</svg>
