<svg width="60" height="13" viewBox="0 0 60 13" fill="none" xmlns="http://www.w3.org/2000/svg">
<path d="M1.99219 3.66016V10H0.908203V3.66016H1.99219ZM6.16406 3.66016L3.0293 7.29297H1.62891L1.46484 6.34375H2.53125L4.85156 3.66016H6.16406ZM5.00391 10L2.47852 7.12891L3.17578 6.34375L6.375 10H5.00391ZM7.26562 7.06445V6.94141C7.26562 6.44141 7.32031 5.98438 7.42969 5.57031C7.53906 5.15625 7.69727 4.79883 7.9043 4.49805C8.11523 4.19336 8.375 3.95898 8.68359 3.79492C8.99219 3.62695 9.3457 3.54297 9.74414 3.54297C10.0488 3.54297 10.3223 3.58789 10.5645 3.67773C10.8105 3.76758 11.0273 3.90039 11.2148 4.07617C11.4023 4.24805 11.5625 4.45898 11.6953 4.70898C11.8281 4.95508 11.9355 5.23633 12.0176 5.55273C12.0996 5.86914 12.1582 6.2168 12.1934 6.5957V7.08203C12.1504 7.55078 12.0703 7.97266 11.9531 8.34766C11.8359 8.71875 11.6777 9.03711 11.4785 9.30273C11.2793 9.56836 11.0352 9.77148 10.7461 9.91211C10.457 10.0527 10.1191 10.123 9.73242 10.123C9.3418 10.123 8.99219 10.0488 8.68359 9.90039C8.37891 9.74805 8.12109 9.53516 7.91016 9.26172C7.69922 8.98828 7.53906 8.66602 7.42969 8.29492C7.32031 7.91992 7.26562 7.50977 7.26562 7.06445ZM8.35547 6.94141V7.06445C8.35547 7.36523 8.38672 7.64648 8.44922 7.9082C8.51172 8.16992 8.60742 8.40039 8.73633 8.59961C8.86914 8.79883 9.03906 8.95508 9.24609 9.06836C9.45703 9.17773 9.70898 9.23242 10.002 9.23242C10.2871 9.23242 10.5312 9.17383 10.7344 9.05664C10.9375 8.93945 11.1074 8.78125 11.2441 8.58203C11.3848 8.37891 11.5 8.14844 11.5898 7.89062C11.6836 7.63281 11.7617 7.36523 11.8242 7.08789V6.70117C11.7773 6.41602 11.709 6.13867 11.6191 5.86914C11.5332 5.59961 11.418 5.35742 11.2734 5.14258C11.1328 4.92383 10.959 4.75195 10.752 4.62695C10.5449 4.49805 10.2988 4.43359 10.0137 4.43359C9.7168 4.43359 9.46289 4.5 9.25195 4.63281C9.04492 4.76562 8.875 4.94727 8.74219 5.17773C8.60938 5.4082 8.51172 5.67578 8.44922 5.98047C8.38672 6.28125 8.35547 6.60156 8.35547 6.94141ZM11.6602 3.66016H12.5801V8.27148C12.5801 8.45117 12.5918 8.59766 12.6152 8.71094C12.6387 8.82422 12.6719 8.91406 12.7148 8.98047C12.7617 9.04297 12.8125 9.08789 12.8672 9.11523C12.9258 9.13867 12.9863 9.15039 13.0488 9.15039C13.0879 9.15039 13.123 9.14648 13.1543 9.13867C13.1895 9.13086 13.2207 9.12305 13.248 9.11523L13.3828 9.92383C13.2617 10.0098 13.1426 10.0645 13.0254 10.0879C12.9082 10.1113 12.7871 10.123 12.6621 10.123C12.4785 10.123 12.3145 10.0879 12.1699 10.0176C12.0254 9.95117 11.9023 9.8457 11.8008 9.70117C11.6992 9.55273 11.6211 9.36133 11.5664 9.12695C11.5156 8.88867 11.4902 8.60352 11.4902 8.27148V5.03711L11.6602 3.66016ZM16.7051 5.27148L14.9707 10H13.7695L16.2363 3.54297L16.998 3.61328L16.7051 5.27148ZM15.082 1.10547C15.3008 1.10547 15.4902 1.12891 15.6504 1.17578C15.8105 1.22266 15.9473 1.29102 16.0605 1.38086C16.1777 1.4707 16.2754 1.57813 16.3535 1.70312C16.4316 1.82812 16.498 1.96875 16.5527 2.125L19.0547 8.62891C19.1094 8.75781 19.1641 8.86133 19.2188 8.93945C19.2734 9.01367 19.334 9.06836 19.4004 9.10352C19.4668 9.13477 19.5469 9.15039 19.6406 9.15039C19.6758 9.15039 19.7129 9.15039 19.752 9.15039C19.7949 9.14648 19.8301 9.14258 19.8574 9.13867L19.8926 10.0293C19.8496 10.0449 19.7852 10.0605 19.6992 10.0762C19.6172 10.0918 19.5312 10.0996 19.4414 10.0996C19.2031 10.0996 18.998 10.0703 18.8262 10.0117C18.6582 9.95703 18.5098 9.8457 18.3809 9.67773C18.252 9.50586 18.123 9.25 17.9941 8.91016L16.2012 4.26953L15.5098 2.58789C15.4512 2.43945 15.3887 2.32227 15.3223 2.23633C15.2598 2.15039 15.1855 2.08984 15.0996 2.05469C15.0176 2.01562 14.918 1.99609 14.8008 1.99609C14.7695 1.99609 14.7246 1.99805 14.666 2.00195C14.6074 2.00195 14.5605 2.00391 14.5254 2.00781L14.5195 1.17578C14.5781 1.15625 14.666 1.14062 14.7832 1.12891C14.9004 1.11328 15 1.10547 15.082 1.10547ZM21.3457 3.66016H22.4355V8.38281C22.4355 8.59766 22.4688 8.75977 22.5352 8.86914C22.6016 8.97852 22.6875 9.05273 22.793 9.0918C22.8984 9.12695 23.0117 9.14453 23.1328 9.14453C23.2227 9.14453 23.3164 9.13672 23.4141 9.12109C23.5156 9.10156 23.5918 9.08594 23.6426 9.07422L23.6484 9.95312C23.5625 9.98047 23.4492 10.0078 23.3086 10.0352C23.1719 10.0625 23.0059 10.0762 22.8105 10.0762C22.5449 10.0762 22.3008 10.0234 22.0781 9.91797C21.8555 9.80859 21.6777 9.63086 21.5449 9.38477C21.4121 9.13477 21.3457 8.79883 21.3457 8.37695V3.66016ZM24.5684 6.90039V6.76562C24.5684 6.32422 24.6309 5.91602 24.7559 5.54102C24.8848 5.16211 25.0703 4.83203 25.3125 4.55078C25.5586 4.26953 25.8555 4.05078 26.2031 3.89453C26.5547 3.73828 26.9512 3.66016 27.3926 3.66016C27.5137 3.67188 27.623 3.71484 27.7207 3.78906C27.8184 3.85938 27.9277 3.93945 28.0488 4.0293C28.1738 4.11523 28.3359 4.18555 28.5352 4.24023C28.8945 4.4082 29.2012 4.62891 29.4551 4.90234C29.709 5.17188 29.9023 5.48242 30.0352 5.83398C30.168 6.18555 30.2344 6.57031 30.2344 6.98828V7.11719C30.2344 7.50781 30.1699 7.88281 30.041 8.24219C29.916 8.60156 29.7305 8.92188 29.4844 9.20312C29.2422 9.48438 28.9453 9.70703 28.5938 9.87109C28.2461 10.0352 27.8496 10.1172 27.4043 10.1172C26.959 10.1172 26.5605 10.0371 26.209 9.87695C25.8613 9.71289 25.5645 9.48633 25.3184 9.19727C25.0723 8.9043 24.8848 8.5625 24.7559 8.17188C24.6309 7.78125 24.5684 7.35742 24.5684 6.90039ZM25.6523 6.76562V6.90039C25.6523 7.2168 25.6875 7.51562 25.7578 7.79688C25.8281 8.07422 25.9336 8.32031 26.0742 8.53516C26.2188 8.75 26.4004 8.91992 26.6191 9.04492C26.8418 9.16602 27.1035 9.22656 27.4043 9.22656C27.7051 9.22656 27.9648 9.16602 28.1836 9.04492C28.4023 8.91992 28.582 8.75 28.7227 8.53516C28.8633 8.32031 28.9688 8.07422 29.0391 7.79688C29.1094 7.51562 29.1445 7.2168 29.1445 6.90039V6.76562C29.1445 6.47266 29.1094 6.19336 29.0391 5.92773C28.9688 5.66211 28.8613 5.42578 28.7168 5.21875C28.5762 5.01172 28.3945 4.84961 28.1719 4.73242C27.9531 4.61523 27.6934 4.55664 27.3926 4.55664C27.0957 4.55664 26.8359 4.61523 26.6133 4.73242C26.3945 4.84961 26.2148 5.01172 26.0742 5.21875C25.9336 5.42578 25.8281 5.66211 25.7578 5.92773C25.6875 6.19336 25.6523 6.47266 25.6523 6.76562ZM30.7266 3.66016V4.55664H27.3867V3.66016H30.7266ZM35.6074 3.66016H36.6914V10H35.7129L35.6074 8.53516V3.66016ZM35.8008 7.05273L36.2051 7.04102C36.2051 7.48633 36.1641 7.89648 36.082 8.27148C36.0039 8.64648 35.8809 8.97266 35.7129 9.25C35.5449 9.52734 35.3301 9.74219 35.0684 9.89453C34.8066 10.0469 34.4922 10.123 34.125 10.123C33.8281 10.123 33.5625 10.084 33.3281 10.0059C33.0977 9.93164 32.8984 9.8125 32.7305 9.64844C32.5664 9.48047 32.4297 9.26367 32.3203 8.99805L32.1035 7.30469H32.7832C32.7832 7.70703 32.8164 8.03516 32.8828 8.28906C32.9492 8.54297 33.041 8.73828 33.1582 8.875C33.2793 9.01172 33.418 9.10547 33.5742 9.15625C33.7305 9.20703 33.8984 9.23242 34.0781 9.23242C34.4258 9.23242 34.7109 9.17969 34.9336 9.07422C35.1602 8.96484 35.3359 8.8125 35.4609 8.61719C35.5859 8.42188 35.6738 8.19141 35.7246 7.92578C35.7754 7.66016 35.8008 7.36914 35.8008 7.05273ZM31.7051 3.66016H32.7832V12.4375H31.7051V3.66016ZM40.6816 6.56055H41.9707V7.19336H40.7695C40.4453 7.19336 40.1719 7.23047 39.9492 7.30469C39.7305 7.375 39.5645 7.48633 39.4512 7.63867C39.3379 7.78711 39.2812 7.98047 39.2812 8.21875C39.2812 8.35547 39.3145 8.48633 39.3809 8.61133C39.4512 8.73242 39.5527 8.83984 39.6855 8.93359C39.8223 9.02734 39.9863 9.10156 40.1777 9.15625C40.373 9.21094 40.5938 9.23828 40.8398 9.23828C41.1562 9.23828 41.4316 9.18555 41.666 9.08008C41.9004 8.97461 42.082 8.83789 42.2109 8.66992C42.3438 8.49805 42.4102 8.31641 42.4102 8.125H43.4883C43.4883 8.46875 43.4121 8.76758 43.2598 9.02148C43.1074 9.27148 42.9043 9.47852 42.6504 9.64258C42.3965 9.80273 42.1113 9.92188 41.7949 10C41.4824 10.0781 41.1641 10.1172 40.8398 10.1172C40.457 10.1172 40.1035 10.0742 39.7793 9.98828C39.459 9.90234 39.1797 9.77734 38.9414 9.61328C38.7031 9.44922 38.5176 9.25 38.3848 9.01562C38.2559 8.77734 38.1914 8.50977 38.1914 8.21289C38.1914 7.94727 38.2461 7.71289 38.3555 7.50977C38.4688 7.30273 38.6309 7.12891 38.8418 6.98828C39.0566 6.84766 39.3184 6.74219 39.627 6.67188C39.9355 6.59766 40.2871 6.56055 40.6816 6.56055ZM41.9707 6.9707H40.6816C40.3223 6.9707 39.9961 6.92969 39.7031 6.84766C39.4102 6.76562 39.1582 6.65234 38.9473 6.50781C38.7402 6.35938 38.5801 6.18945 38.4668 5.99805C38.3574 5.80664 38.3027 5.60352 38.3027 5.38867C38.3027 5.08789 38.3613 4.82422 38.4785 4.59766C38.5996 4.36719 38.7715 4.17578 38.9941 4.02344C39.2168 3.86719 39.4844 3.75 39.7969 3.67188C40.1094 3.58984 40.457 3.54883 40.8398 3.54883C41.1875 3.54883 41.5137 3.5918 41.8184 3.67773C42.123 3.76367 42.3926 3.88867 42.627 4.05273C42.8652 4.2168 43.0508 4.41406 43.1836 4.64453C43.3164 4.875 43.3828 5.13477 43.3828 5.42383H42.3047C42.3047 5.23633 42.2383 5.06836 42.1055 4.91992C41.9766 4.76758 41.8008 4.64844 41.5781 4.5625C41.3594 4.47266 41.1133 4.42773 40.8398 4.42773C40.5078 4.42773 40.2344 4.47461 40.0195 4.56836C39.8047 4.6582 39.6445 4.77734 39.5391 4.92578C39.4375 5.07031 39.3867 5.22461 39.3867 5.38867C39.3867 5.52539 39.4121 5.65234 39.4629 5.76953C39.5176 5.88281 39.5996 5.98242 39.709 6.06836C39.8184 6.15039 39.9609 6.21484 40.1367 6.26172C40.3125 6.30859 40.5234 6.33203 40.7695 6.33203H41.9707V6.9707ZM40.4355 2.64648L40.752 0.677734H41.7715L41.0918 2.64648H40.4355ZM44.9414 12.4375V6.60742C44.9414 6.10352 45.0098 5.66211 45.1465 5.2832C45.2832 4.90039 45.4727 4.58008 45.7148 4.32227C45.957 4.06445 46.2344 3.87109 46.5469 3.74219C46.8633 3.60938 47.1992 3.54297 47.5547 3.54297C48.0078 3.54297 48.4023 3.62695 48.7383 3.79492C49.0781 3.95898 49.3613 4.19336 49.5879 4.49805C49.8184 4.79883 49.9902 5.15625 50.1035 5.57031C50.2168 5.98438 50.2734 6.44141 50.2734 6.94141V7.06445C50.2734 7.50977 50.2207 7.91992 50.1152 8.29492C50.0098 8.66602 49.8535 8.98828 49.6465 9.26172C49.4395 9.53516 49.1836 9.74609 48.8789 9.89453C48.5781 10.043 48.2324 10.1172 47.8418 10.1172C47.4355 10.1172 47.0781 10.0508 46.7695 9.91797C46.4609 9.78516 46.1992 9.59375 45.9844 9.34375C45.7695 9.08984 45.5977 8.78516 45.4688 8.42969C45.3438 8.07422 45.2598 7.67188 45.2168 7.22266C45.2246 7.22656 45.2715 7.26562 45.3574 7.33984C45.4434 7.41016 45.5293 7.48047 45.6152 7.55078C45.7012 7.62109 45.7441 7.65625 45.7441 7.65625C45.8223 7.92969 45.9297 8.1875 46.0664 8.42969C46.207 8.66797 46.3945 8.86133 46.6289 9.00977C46.8633 9.1543 47.1582 9.22656 47.5137 9.22656C47.8066 9.22656 48.0586 9.17188 48.2695 9.0625C48.4805 8.94922 48.6523 8.79492 48.7852 8.59961C48.9219 8.40039 49.0215 8.16992 49.084 7.9082C49.1504 7.64648 49.1836 7.36523 49.1836 7.06445V6.94141C49.1836 6.60156 49.1543 6.28125 49.0957 5.98047C49.0371 5.67578 48.9434 5.4082 48.8145 5.17773C48.6855 4.94727 48.5176 4.76562 48.3105 4.63281C48.1035 4.5 47.8516 4.43359 47.5547 4.43359C47.2812 4.43359 47.0469 4.50195 46.8516 4.63867C46.6602 4.77148 46.5039 4.94727 46.3828 5.16602C46.2617 5.38477 46.1719 5.62305 46.1133 5.88086C46.0586 6.13477 46.0312 6.38086 46.0312 6.61914L46.0254 12.4375H44.9414ZM51.4805 7.06445V6.94141C51.4805 6.44141 51.5352 5.98438 51.6445 5.57031C51.7539 5.15625 51.9121 4.79883 52.1191 4.49805C52.3301 4.19336 52.5898 3.95898 52.8984 3.79492C53.207 3.62695 53.5605 3.54297 53.959 3.54297C54.2637 3.54297 54.5371 3.58789 54.7793 3.67773C55.0254 3.76758 55.2422 3.90039 55.4297 4.07617C55.6172 4.24805 55.7773 4.45898 55.9102 4.70898C56.043 4.95508 56.1504 5.23633 56.2324 5.55273C56.3145 5.86914 56.373 6.2168 56.4082 6.5957V7.08203C56.3652 7.55078 56.2852 7.97266 56.168 8.34766C56.0508 8.71875 55.8926 9.03711 55.6934 9.30273C55.4941 9.56836 55.25 9.77148 54.9609 9.91211C54.6719 10.0527 54.334 10.123 53.9473 10.123C53.5566 10.123 53.207 10.0488 52.8984 9.90039C52.5938 9.74805 52.3359 9.53516 52.125 9.26172C51.9141 8.98828 51.7539 8.66602 51.6445 8.29492C51.5352 7.91992 51.4805 7.50977 51.4805 7.06445ZM52.5703 6.94141V7.06445C52.5703 7.36523 52.6016 7.64648 52.6641 7.9082C52.7266 8.16992 52.8223 8.40039 52.9512 8.59961C53.084 8.79883 53.2539 8.95508 53.4609 9.06836C53.6719 9.17773 53.9238 9.23242 54.2168 9.23242C54.502 9.23242 54.7461 9.17383 54.9492 9.05664C55.1523 8.93945 55.3223 8.78125 55.459 8.58203C55.5996 8.37891 55.7148 8.14844 55.8047 7.89062C55.8984 7.63281 55.9766 7.36523 56.0391 7.08789V6.70117C55.9922 6.41602 55.9238 6.13867 55.834 5.86914C55.748 5.59961 55.6328 5.35742 55.4883 5.14258C55.3477 4.92383 55.1738 4.75195 54.9668 4.62695C54.7598 4.49805 54.5137 4.43359 54.2285 4.43359C53.9316 4.43359 53.6777 4.5 53.4668 4.63281C53.2598 4.76562 53.0898 4.94727 52.957 5.17773C52.8242 5.4082 52.7266 5.67578 52.6641 5.98047C52.6016 6.28125 52.5703 6.60156 52.5703 6.94141ZM55.875 3.66016H56.7949V8.27148C56.7949 8.45117 56.8066 8.59766 56.8301 8.71094C56.8535 8.82422 56.8867 8.91406 56.9297 8.98047C56.9766 9.04297 57.0273 9.08789 57.082 9.11523C57.1406 9.13867 57.2012 9.15039 57.2637 9.15039C57.3027 9.15039 57.3379 9.14648 57.3691 9.13867C57.4043 9.13086 57.4355 9.12305 57.4629 9.11523L57.5977 9.92383C57.4766 10.0098 57.3574 10.0645 57.2402 10.0879C57.123 10.1113 57.002 10.123 56.877 10.123C56.6934 10.123 56.5293 10.0879 56.3848 10.0176C56.2402 9.95117 56.1172 9.8457 56.0156 9.70117C55.9141 9.55273 55.8359 9.36133 55.7812 9.12695C55.7305 8.88867 55.7051 8.60352 55.7051 8.27148V5.03711L55.875 3.66016ZM59.7949 1.46875L59.7188 7.5918H58.7402L58.6582 1.46875H59.7949ZM58.623 9.45508C58.623 9.2793 58.6758 9.13086 58.7812 9.00977C58.8906 8.88867 59.0508 8.82812 59.2617 8.82812C59.4688 8.82812 59.627 8.88867 59.7363 9.00977C59.8496 9.13086 59.9062 9.2793 59.9062 9.45508C59.9062 9.62305 59.8496 9.76758 59.7363 9.88867C59.627 10.0098 59.4688 10.0703 59.2617 10.0703C59.0508 10.0703 58.8906 10.0098 58.7812 9.88867C58.6758 9.76758 58.623 9.62305 58.623 9.45508Z" fill="white"/>
</svg>
