<svg width="65" height="11" viewBox="0 0 65 11" fill="none" xmlns="http://www.w3.org/2000/svg">
<path d="M1.064 1.768C1.264 1.792 1.484 1.812 1.724 1.828C1.964 1.836 2.18 1.84 2.372 1.84H8.288C8.432 1.84 8.584 1.84 8.744 1.84C8.912 1.832 9.056 1.824 9.176 1.816C9.168 1.952 9.16 2.108 9.152 2.284C9.144 2.452 9.14 2.608 9.14 2.752V8.944C9.14 9.16 9.144 9.384 9.152 9.616C9.168 9.848 9.18 10.012 9.188 10.108H8.108C8.116 10.012 8.12 9.868 8.12 9.676C8.128 9.476 8.132 9.268 8.132 9.052V2.8H2.384C2.16 2.8 1.916 2.804 1.652 2.812C1.396 2.82 1.2 2.828 1.064 2.836V1.768ZM0.908 8.392C1.06 8.408 1.256 8.424 1.496 8.44C1.744 8.456 1.992 8.464 2.24 8.464H8.672V9.436H2.264C2.024 9.436 1.776 9.44 1.52 9.448C1.272 9.456 1.068 9.468 0.908 9.484V8.392ZM13.724 1.204C13.94 1.348 14.188 1.528 14.468 1.744C14.748 1.952 15.032 2.176 15.32 2.416C15.616 2.648 15.892 2.876 16.148 3.1C16.404 3.324 16.616 3.52 16.784 3.688L16.028 4.444C15.876 4.292 15.68 4.104 15.44 3.88C15.2 3.656 14.936 3.424 14.648 3.184C14.36 2.936 14.076 2.704 13.796 2.488C13.516 2.264 13.264 2.08 13.04 1.936L13.724 1.204ZM12.692 9.244C13.396 9.14 14.036 8.996 14.612 8.812C15.196 8.628 15.728 8.42 16.208 8.188C16.688 7.956 17.116 7.724 17.492 7.492C18.108 7.108 18.676 6.668 19.196 6.172C19.716 5.668 20.172 5.148 20.564 4.612C20.956 4.076 21.268 3.564 21.5 3.076L22.076 4.096C21.804 4.592 21.468 5.096 21.068 5.608C20.668 6.12 20.216 6.612 19.712 7.084C19.208 7.556 18.652 7.984 18.044 8.368C17.644 8.616 17.204 8.86 16.724 9.1C16.252 9.34 15.732 9.56 15.164 9.76C14.604 9.952 13.992 10.108 13.328 10.228L12.692 9.244ZM25.136 2.188C25.328 2.204 25.524 2.216 25.724 2.224C25.924 2.232 26.124 2.236 26.324 2.236C26.452 2.236 26.652 2.236 26.924 2.236C27.196 2.236 27.504 2.236 27.848 2.236C28.2 2.236 28.564 2.236 28.94 2.236C29.324 2.236 29.688 2.236 30.032 2.236C30.376 2.236 30.672 2.236 30.92 2.236C31.176 2.236 31.356 2.236 31.46 2.236C31.676 2.236 31.884 2.232 32.084 2.224C32.292 2.216 32.48 2.204 32.648 2.188V3.268C32.48 3.252 32.288 3.244 32.072 3.244C31.864 3.236 31.66 3.232 31.46 3.232C31.364 3.232 31.184 3.232 30.92 3.232C30.664 3.232 30.356 3.232 29.996 3.232C29.644 3.232 29.272 3.232 28.88 3.232C28.496 3.232 28.128 3.232 27.776 3.232C27.424 3.232 27.116 3.232 26.852 3.232C26.596 3.232 26.42 3.232 26.324 3.232C26.116 3.232 25.912 3.236 25.712 3.244C25.512 3.252 25.32 3.26 25.136 3.268V2.188ZM24.104 8.128C24.312 8.136 24.52 8.148 24.728 8.164C24.936 8.18 25.148 8.188 25.364 8.188C25.46 8.188 25.648 8.188 25.928 8.188C26.216 8.188 26.56 8.188 26.96 8.188C27.368 8.188 27.804 8.188 28.268 8.188C28.732 8.188 29.192 8.188 29.648 8.188C30.112 8.188 30.544 8.188 30.944 8.188C31.352 8.188 31.696 8.188 31.976 8.188C32.264 8.188 32.456 8.188 32.552 8.188C32.736 8.188 32.92 8.184 33.104 8.176C33.288 8.16 33.468 8.144 33.644 8.128V9.28C33.468 9.264 33.28 9.252 33.08 9.244C32.888 9.228 32.712 9.22 32.552 9.22C32.456 9.22 32.264 9.22 31.976 9.22C31.696 9.22 31.352 9.22 30.944 9.22C30.544 9.22 30.112 9.22 29.648 9.22C29.192 9.22 28.732 9.22 28.268 9.22C27.804 9.22 27.368 9.22 26.96 9.22C26.56 9.22 26.216 9.22 25.928 9.22C25.648 9.22 25.46 9.22 25.364 9.22C25.148 9.22 24.932 9.228 24.716 9.244C24.508 9.252 24.304 9.264 24.104 9.28V8.128ZM36.992 1.66C37.296 1.668 37.68 1.672 38.144 1.672C38.616 1.664 39.108 1.644 39.62 1.612C40.132 1.572 40.6 1.528 41.024 1.48C41.296 1.44 41.58 1.396 41.876 1.348C42.18 1.292 42.472 1.232 42.752 1.168C43.04 1.104 43.304 1.04 43.544 0.976C43.784 0.911999 43.976 0.848 44.12 0.784L44.756 1.612C44.62 1.644 44.496 1.676 44.384 1.708C44.272 1.74 44.172 1.768 44.084 1.792C43.852 1.848 43.58 1.908 43.268 1.972C42.964 2.036 42.64 2.1 42.296 2.164C41.96 2.22 41.628 2.268 41.3 2.308C40.86 2.372 40.392 2.42 39.896 2.452C39.408 2.484 38.932 2.508 38.468 2.524C38.004 2.532 37.592 2.54 37.232 2.548L36.992 1.66ZM37.664 9.832C38.352 9.512 38.92 9.128 39.368 8.68C39.824 8.232 40.164 7.696 40.388 7.072C40.612 6.448 40.724 5.724 40.724 4.9C40.724 4.9 40.724 4.788 40.724 4.564C40.724 4.332 40.724 4.016 40.724 3.616C40.724 3.208 40.724 2.728 40.724 2.176L41.696 2.044C41.696 2.236 41.696 2.456 41.696 2.704C41.696 2.944 41.696 3.196 41.696 3.46C41.696 3.716 41.696 3.952 41.696 4.168C41.696 4.384 41.696 4.56 41.696 4.696C41.696 4.824 41.696 4.888 41.696 4.888C41.696 5.736 41.592 6.504 41.384 7.192C41.184 7.872 40.856 8.484 40.4 9.028C39.952 9.572 39.356 10.06 38.612 10.492L37.664 9.832ZM36.056 4.516C36.192 4.524 36.356 4.536 36.548 4.552C36.74 4.56 36.928 4.564 37.112 4.564C37.224 4.564 37.436 4.564 37.748 4.564C38.06 4.564 38.436 4.564 38.876 4.564C39.324 4.564 39.8 4.564 40.304 4.564C40.816 4.564 41.324 4.564 41.828 4.564C42.34 4.564 42.816 4.564 43.256 4.564C43.696 4.564 44.072 4.564 44.384 4.564C44.696 4.564 44.904 4.564 45.008 4.564C45.096 4.564 45.196 4.564 45.308 4.564C45.428 4.556 45.544 4.548 45.656 4.54C45.776 4.532 45.876 4.524 45.956 4.516V5.512C45.828 5.496 45.68 5.484 45.512 5.476C45.344 5.468 45.184 5.464 45.032 5.464C44.928 5.464 44.72 5.464 44.408 5.464C44.104 5.464 43.728 5.464 43.28 5.464C42.84 5.464 42.364 5.464 41.852 5.464C41.348 5.464 40.84 5.464 40.328 5.464C39.816 5.464 39.336 5.464 38.888 5.464C38.44 5.464 38.06 5.464 37.748 5.464C37.444 5.464 37.24 5.464 37.136 5.464C36.944 5.464 36.752 5.468 36.56 5.476C36.376 5.484 36.208 5.496 36.056 5.512V4.516ZM49.748 6.196C49.884 5.884 50.012 5.544 50.132 5.176C50.26 4.808 50.376 4.424 50.48 4.024C50.584 3.624 50.676 3.232 50.756 2.848C50.836 2.456 50.896 2.088 50.936 1.744L52.004 1.96C51.98 2.048 51.952 2.144 51.92 2.248C51.896 2.352 51.872 2.456 51.848 2.56C51.824 2.656 51.8 2.748 51.776 2.836C51.736 3.02 51.68 3.264 51.608 3.568C51.544 3.864 51.464 4.188 51.368 4.54C51.272 4.884 51.168 5.236 51.056 5.596C50.944 5.956 50.824 6.288 50.696 6.592C50.552 6.96 50.384 7.336 50.192 7.72C50 8.104 49.796 8.484 49.58 8.86C49.364 9.228 49.144 9.572 48.92 9.892L47.9 9.46C48.284 8.956 48.636 8.412 48.956 7.828C49.284 7.236 49.548 6.692 49.748 6.196ZM55.664 5.74C55.544 5.428 55.408 5.1 55.256 4.756C55.112 4.404 54.96 4.056 54.8 3.712C54.648 3.36 54.496 3.032 54.344 2.728C54.2 2.424 54.06 2.16 53.924 1.936L54.896 1.612C55.016 1.828 55.148 2.088 55.292 2.392C55.444 2.696 55.6 3.02 55.76 3.364C55.92 3.708 56.076 4.056 56.228 4.408C56.38 4.76 56.52 5.096 56.648 5.416C56.768 5.704 56.892 6.032 57.02 6.4C57.156 6.76 57.292 7.128 57.428 7.504C57.564 7.88 57.688 8.244 57.8 8.596C57.912 8.94 58.008 9.248 58.088 9.52L57.02 9.868C56.924 9.452 56.8 9.008 56.648 8.536C56.496 8.064 56.336 7.584 56.168 7.096C56 6.608 55.832 6.156 55.664 5.74ZM64.0918 1.46875L64.0156 7.5918H63.0371L62.9551 1.46875H64.0918ZM62.9199 9.45508C62.9199 9.2793 62.9727 9.13086 63.0781 9.00977C63.1875 8.88867 63.3477 8.82812 63.5586 8.82812C63.7656 8.82812 63.9238 8.88867 64.0332 9.00977C64.1465 9.13086 64.2031 9.2793 64.2031 9.45508C64.2031 9.62305 64.1465 9.76758 64.0332 9.88867C63.9238 10.0098 63.7656 10.0703 63.5586 10.0703C63.3477 10.0703 63.1875 10.0098 63.0781 9.88867C62.9727 9.76758 62.9199 9.62305 62.9199 9.45508Z" fill="white"/>
</svg>
