<svg width="72" height="11" viewBox="0 0 72 11" fill="none" xmlns="http://www.w3.org/2000/svg">
<path d="M8.028 0.0759997H9.024V8.068H8.028V0.0759997ZM8.712 3.376H10.62V4.204H8.712V3.376ZM2.268 9.88H9.504V10.696H2.268V9.88ZM2.268 7.252H3.252V10.204H2.268V7.252ZM3.624 0.844C4.168 0.844 4.652 0.96 5.076 1.192C5.5 1.416 5.836 1.728 6.084 2.128C6.332 2.528 6.456 2.992 6.456 3.52C6.456 4.032 6.332 4.492 6.084 4.9C5.836 5.308 5.5 5.628 5.076 5.86C4.652 6.084 4.168 6.196 3.624 6.196C3.088 6.196 2.604 6.084 2.172 5.86C1.748 5.628 1.412 5.308 1.164 4.9C0.916 4.492 0.792 4.032 0.792 3.52C0.792 2.992 0.916 2.528 1.164 2.128C1.412 1.728 1.748 1.416 2.172 1.192C2.604 0.96 3.088 0.844 3.624 0.844ZM3.624 1.708C3.272 1.708 2.956 1.784 2.676 1.936C2.396 2.088 2.172 2.3 2.004 2.572C1.844 2.844 1.764 3.16 1.764 3.52C1.764 3.872 1.844 4.184 2.004 4.456C2.172 4.728 2.396 4.94 2.676 5.092C2.956 5.244 3.272 5.32 3.624 5.32C3.976 5.32 4.292 5.244 4.572 5.092C4.86 4.94 5.084 4.728 5.244 4.456C5.412 4.184 5.496 3.872 5.496 3.52C5.496 3.16 5.412 2.844 5.244 2.572C5.084 2.3 4.86 2.088 4.572 1.936C4.292 1.784 3.976 1.708 3.624 1.708ZM12.2871 0.736H13.2831V5.404H12.2871V0.736ZM12.2871 5.176H13.1031C13.7431 5.176 14.3231 5.168 14.8431 5.152C15.3711 5.128 15.8751 5.088 16.3551 5.032C16.8431 4.976 17.3391 4.896 17.8431 4.792L17.9631 5.608C17.4511 5.712 16.9471 5.796 16.4511 5.86C15.9551 5.916 15.4351 5.956 14.8911 5.98C14.3551 5.996 13.7591 6.004 13.1031 6.004H12.2871V5.176ZM19.5711 0.0759997H20.5671V6.736H19.5711V0.0759997ZM16.5231 1.348H19.8351V2.14H16.5231V1.348ZM16.5231 3.268H19.8351V4.048H16.5231V3.268ZM16.9911 6.832C18.1111 6.832 18.9911 7.012 19.6311 7.372C20.2791 7.732 20.6031 8.236 20.6031 8.884C20.6031 9.524 20.2791 10.024 19.6311 10.384C18.9911 10.744 18.1111 10.924 16.9911 10.924C15.8711 10.924 14.9871 10.744 14.3391 10.384C13.6991 10.024 13.3791 9.524 13.3791 8.884C13.3791 8.236 13.6991 7.732 14.3391 7.372C14.9871 7.012 15.8711 6.832 16.9911 6.832ZM16.9911 7.624C16.4471 7.624 15.9791 7.676 15.5871 7.78C15.1951 7.876 14.8911 8.02 14.6751 8.212C14.4671 8.396 14.3631 8.62 14.3631 8.884C14.3631 9.14 14.4671 9.364 14.6751 9.556C14.8911 9.74 15.1951 9.884 15.5871 9.988C15.9791 10.084 16.4471 10.132 16.9911 10.132C17.5431 10.132 18.0111 10.084 18.3951 9.988C18.7871 9.884 19.0871 9.74 19.2951 9.556C19.5111 9.364 19.6191 9.14 19.6191 8.884C19.6191 8.62 19.5111 8.396 19.2951 8.212C19.0871 8.02 18.7871 7.876 18.3951 7.78C18.0111 7.676 17.5431 7.624 16.9911 7.624ZM30.0341 0.0759997H31.0181V10.936H30.0341V0.0759997ZM30.7901 4.54H32.7941V5.38H30.7901V4.54ZM22.6181 1.816H29.0141V2.632H22.6181V1.816ZM25.8701 3.52C26.3821 3.52 26.8341 3.628 27.2261 3.844C27.6261 4.06 27.9381 4.356 28.1621 4.732C28.3941 5.1 28.5101 5.528 28.5101 6.016C28.5101 6.504 28.3941 6.936 28.1621 7.312C27.9381 7.688 27.6261 7.984 27.2261 8.2C26.8341 8.408 26.3821 8.512 25.8701 8.512C25.3581 8.512 24.9021 8.408 24.5021 8.2C24.1101 7.984 23.7981 7.688 23.5661 7.312C23.3341 6.936 23.2181 6.504 23.2181 6.016C23.2181 5.528 23.3341 5.1 23.5661 4.732C23.7981 4.356 24.1101 4.06 24.5021 3.844C24.9021 3.628 25.3581 3.52 25.8701 3.52ZM25.8701 4.348C25.5421 4.348 25.2501 4.42 24.9941 4.564C24.7381 4.708 24.5341 4.904 24.3821 5.152C24.2381 5.4 24.1661 5.688 24.1661 6.016C24.1661 6.344 24.2381 6.636 24.3821 6.892C24.5341 7.14 24.7381 7.336 24.9941 7.48C25.2501 7.616 25.5421 7.684 25.8701 7.684C26.1901 7.684 26.4781 7.616 26.7341 7.48C26.9901 7.336 27.1901 7.14 27.3341 6.892C27.4861 6.636 27.5621 6.344 27.5621 6.016C27.5621 5.688 27.4861 5.4 27.3341 5.152C27.1901 4.904 26.9901 4.708 26.7341 4.564C26.4781 4.42 26.1901 4.348 25.8701 4.348ZM25.3541 0.207999H26.3501V2.176H25.3541V0.207999ZM36.5372 0.435999H37.3652V1.456C37.3652 2.12 37.2372 2.74 36.9812 3.316C36.7252 3.892 36.3652 4.396 35.9012 4.828C35.4372 5.26 34.8972 5.584 34.2812 5.8L33.7772 5.008C34.1932 4.864 34.5692 4.672 34.9052 4.432C35.2412 4.192 35.5292 3.916 35.7692 3.604C36.0172 3.292 36.2052 2.952 36.3332 2.584C36.4692 2.216 36.5372 1.84 36.5372 1.456V0.435999ZM36.7172 0.435999H37.5452V1.456C37.5452 1.824 37.6092 2.184 37.7372 2.536C37.8732 2.88 38.0612 3.2 38.3012 3.496C38.5492 3.792 38.8412 4.052 39.1772 4.276C39.5132 4.5 39.8812 4.68 40.2812 4.816L39.8012 5.596C39.3452 5.444 38.9292 5.236 38.5532 4.972C38.1772 4.7 37.8532 4.384 37.5812 4.024C37.3092 3.656 37.0972 3.256 36.9452 2.824C36.7932 2.392 36.7172 1.936 36.7172 1.456V0.435999ZM41.6132 0.0759997H42.6092V5.908H41.6132V0.0759997ZM35.6252 6.448H36.5972V7.756H41.6252V6.448H42.6092V10.792H35.6252V6.448ZM36.5972 8.548V9.976H41.6252V8.548H36.5972ZM52.6523 0.0759997H53.6363V10.936H52.6523V0.0759997ZM45.4403 1.144H46.4243V7.864H45.4403V1.144ZM45.4403 7.276H46.3283C47.1603 7.276 48.0043 7.24 48.8603 7.168C49.7243 7.088 50.6123 6.956 51.5243 6.772L51.6562 7.612C50.7123 7.812 49.8043 7.952 48.9323 8.032C48.0603 8.104 47.1923 8.14 46.3283 8.14H45.4403V7.276ZM63.3193 0.0759997H64.3153V10.936H63.3193V0.0759997ZM63.9913 4.552H65.9353V5.38H63.9913V4.552ZM58.1233 1.252H59.0473C59.0473 1.9 59.0073 2.544 58.9273 3.184C58.8473 3.824 58.7113 4.452 58.5193 5.068C58.3353 5.684 58.0793 6.28 57.7513 6.856C57.4313 7.424 57.0273 7.968 56.5393 8.488L55.7473 7.924C56.1873 7.46 56.5593 6.972 56.8633 6.46C57.1753 5.948 57.4233 5.416 57.6073 4.864C57.7913 4.312 57.9233 3.744 58.0033 3.16C58.0833 2.568 58.1233 1.968 58.1233 1.36V1.252ZM56.0953 1.252H58.4953V2.08H56.0953V1.252ZM61.0873 1.252H62.0113C62.0113 1.908 61.9793 2.58 61.9153 3.268C61.8593 3.956 61.7433 4.644 61.5673 5.332C61.3993 6.02 61.1593 6.692 60.8473 7.348C60.5433 8.004 60.1393 8.624 59.6353 9.208L58.8313 8.656C59.2953 8.128 59.6713 7.568 59.9593 6.976C60.2553 6.384 60.4833 5.776 60.6433 5.152C60.8033 4.52 60.9153 3.884 60.9793 3.244C61.0513 2.604 61.0873 1.972 61.0873 1.348V1.252ZM59.3953 1.252H61.4833V2.08H59.3953V1.252ZM71.3262 1.46875L71.25 7.5918H70.2715L70.1895 1.46875H71.3262ZM70.1543 9.45508C70.1543 9.2793 70.207 9.13086 70.3125 9.00977C70.4219 8.88867 70.582 8.82812 70.793 8.82812C71 8.82812 71.1582 8.88867 71.2676 9.00977C71.3809 9.13086 71.4375 9.2793 71.4375 9.45508C71.4375 9.62305 71.3809 9.76758 71.2676 9.88867C71.1582 10.0098 71 10.0703 70.793 10.0703C70.582 10.0703 70.4219 10.0098 70.3125 9.88867C70.207 9.76758 70.1543 9.62305 70.1543 9.45508Z" fill="white"/>
</svg>
