<svg width="43" height="12" viewBox="0 0 43 12" fill="none" xmlns="http://www.w3.org/2000/svg">
<path d="M6.50586 0.46875V9H5.38086V1.39453H1.17383V9H0.0429688V0.46875H6.50586ZM9.47656 3.87891V11.4375H8.38672V2.66016H9.38281L9.47656 3.87891ZM13.748 5.77734V5.90039C13.748 6.36133 13.6934 6.78906 13.584 7.18359C13.4746 7.57422 13.3145 7.91406 13.1035 8.20312C12.8965 8.49219 12.6406 8.7168 12.3359 8.87695C12.0312 9.03711 11.6816 9.11719 11.2871 9.11719C10.8848 9.11719 10.5293 9.05078 10.2207 8.91797C9.91211 8.78516 9.65039 8.5918 9.43555 8.33789C9.2207 8.08398 9.04883 7.7793 8.91992 7.42383C8.79492 7.06836 8.70898 6.66797 8.66211 6.22266V5.56641C8.70898 5.09766 8.79688 4.67773 8.92578 4.30664C9.05469 3.93555 9.22461 3.61914 9.43555 3.35742C9.65039 3.0918 9.91016 2.89062 10.2148 2.75391C10.5195 2.61328 10.8711 2.54297 11.2695 2.54297C11.668 2.54297 12.0215 2.62109 12.3301 2.77734C12.6387 2.92969 12.8984 3.14844 13.1094 3.43359C13.3203 3.71875 13.4785 4.06055 13.584 4.45898C13.6934 4.85352 13.748 5.29297 13.748 5.77734ZM12.6582 5.90039V5.77734C12.6582 5.46094 12.625 5.16406 12.5586 4.88672C12.4922 4.60547 12.3887 4.35938 12.248 4.14844C12.1113 3.93359 11.9355 3.76562 11.7207 3.64453C11.5059 3.51953 11.25 3.45703 10.9531 3.45703C10.6797 3.45703 10.4414 3.50391 10.2383 3.59766C10.0391 3.69141 9.86914 3.81836 9.72852 3.97852C9.58789 4.13477 9.47266 4.31445 9.38281 4.51758C9.29688 4.7168 9.23242 4.92383 9.18945 5.13867V6.65625C9.26758 6.92969 9.37695 7.1875 9.51758 7.42969C9.6582 7.66797 9.8457 7.86133 10.0801 8.00977C10.3145 8.1543 10.6094 8.22656 10.9648 8.22656C11.2578 8.22656 11.5098 8.16602 11.7207 8.04492C11.9355 7.91992 12.1113 7.75 12.248 7.53516C12.3887 7.32031 12.4922 7.07422 12.5586 6.79688C12.625 6.51562 12.6582 6.2168 12.6582 5.90039ZM16.3027 7.2832L19.2266 2.66016H20.3164V9H19.2266V4.37695L16.3027 9H15.2246V2.66016H16.3027V7.2832ZM25.0332 6.21094H22.9531L22.9414 5.34375H24.6406C24.9766 5.34375 25.2559 5.31055 25.4785 5.24414C25.7051 5.17773 25.875 5.07812 25.9883 4.94531C26.1016 4.8125 26.1582 4.64844 26.1582 4.45312C26.1582 4.30078 26.125 4.16797 26.0586 4.05469C25.9961 3.9375 25.9004 3.8418 25.7715 3.76758C25.6426 3.68945 25.4824 3.63281 25.291 3.59766C25.1035 3.55859 24.8828 3.53906 24.6289 3.53906H23.2402V9H22.1562V2.66016H24.6289C25.0312 2.66016 25.3926 2.69531 25.7129 2.76562C26.0371 2.83594 26.3125 2.94336 26.5391 3.08789C26.7695 3.22852 26.9453 3.4082 27.0664 3.62695C27.1875 3.8457 27.248 4.10352 27.248 4.40039C27.248 4.5918 27.209 4.77344 27.1309 4.94531C27.0527 5.11719 26.9375 5.26953 26.7852 5.40234C26.6328 5.53516 26.4453 5.64453 26.2227 5.73047C26 5.8125 25.7441 5.86523 25.4551 5.88867L25.0332 6.21094ZM25.0332 9H22.5605L23.0996 8.12109H25.0332C25.334 8.12109 25.584 8.08398 25.7832 8.00977C25.9824 7.93164 26.1309 7.82227 26.2285 7.68164C26.3301 7.53711 26.3809 7.36523 26.3809 7.16602C26.3809 6.9668 26.3301 6.79688 26.2285 6.65625C26.1309 6.51172 25.9824 6.40234 25.7832 6.32812C25.584 6.25 25.334 6.21094 25.0332 6.21094H23.3867L23.3984 5.34375H25.4551L25.8477 5.67188C26.1953 5.69922 26.4902 5.78516 26.7324 5.92969C26.9746 6.07422 27.1582 6.25781 27.2832 6.48047C27.4082 6.69922 27.4707 6.9375 27.4707 7.19531C27.4707 7.49219 27.4141 7.75391 27.3008 7.98047C27.1914 8.20703 27.0312 8.39648 26.8203 8.54883C26.6094 8.69727 26.3535 8.81055 26.0527 8.88867C25.752 8.96289 25.4121 9 25.0332 9ZM31.5547 9.11719C31.1133 9.11719 30.7129 9.04297 30.3535 8.89453C29.998 8.74219 29.6914 8.5293 29.4336 8.25586C29.1797 7.98242 28.9844 7.6582 28.8477 7.2832C28.7109 6.9082 28.6426 6.49805 28.6426 6.05273V5.80664C28.6426 5.29102 28.7188 4.83203 28.8711 4.42969C29.0234 4.02344 29.2305 3.67969 29.4922 3.39844C29.7539 3.11719 30.0508 2.9043 30.3828 2.75977C30.7148 2.61523 31.0586 2.54297 31.4141 2.54297C31.8672 2.54297 32.2578 2.62109 32.5859 2.77734C32.918 2.93359 33.1895 3.15234 33.4004 3.43359C33.6113 3.71094 33.7676 4.03906 33.8691 4.41797C33.9707 4.79297 34.0215 5.20312 34.0215 5.64844V6.13477H29.2871V5.25H32.9375V5.16797C32.9219 4.88672 32.8633 4.61328 32.7617 4.34766C32.6641 4.08203 32.5078 3.86328 32.293 3.69141C32.0781 3.51953 31.7852 3.43359 31.4141 3.43359C31.168 3.43359 30.9414 3.48633 30.7344 3.5918C30.5273 3.69336 30.3496 3.8457 30.2012 4.04883C30.0527 4.25195 29.9375 4.5 29.8555 4.79297C29.7734 5.08594 29.7324 5.42383 29.7324 5.80664V6.05273C29.7324 6.35352 29.7734 6.63672 29.8555 6.90234C29.9414 7.16406 30.0645 7.39453 30.2246 7.59375C30.3887 7.79297 30.5859 7.94922 30.8164 8.0625C31.0508 8.17578 31.3164 8.23242 31.6133 8.23242C31.9961 8.23242 32.3203 8.1543 32.5859 7.99805C32.8516 7.8418 33.084 7.63281 33.2832 7.37109L33.9395 7.89258C33.8027 8.09961 33.6289 8.29688 33.418 8.48438C33.207 8.67188 32.9473 8.82422 32.6387 8.94141C32.334 9.05859 31.9727 9.11719 31.5547 9.11719ZM37.8008 2.66016V9H36.7109V2.66016H37.8008ZM39.9277 2.66016V3.53906H34.625V2.66016H39.9277ZM42.2832 0.46875L42.207 6.5918H41.2285L41.1465 0.46875H42.2832ZM41.1113 8.45508C41.1113 8.2793 41.1641 8.13086 41.2695 8.00977C41.3789 7.88867 41.5391 7.82812 41.75 7.82812C41.957 7.82812 42.1152 7.88867 42.2246 8.00977C42.3379 8.13086 42.3945 8.2793 42.3945 8.45508C42.3945 8.62305 42.3379 8.76758 42.2246 8.88867C42.1152 9.00977 41.957 9.07031 41.75 9.07031C41.5391 9.07031 41.3789 9.00977 41.2695 8.88867C41.1641 8.76758 41.1113 8.62305 41.1113 8.45508Z" fill="white"/>
</svg>
